# xmcd CD database file
#
# Track frame offsets:
#	150
#	29341
#	55179
#	81947
#	108893
#	138272
#	168496
#	183334
#	271368
#	292248
#	305547
#	327962
#
# Disc length: 4627 seconds
#
# Revision: 0
# Processed by: cddbd v1.5.2PL0 Copyright (c) Steve Scherf et al.
# Submitted via: CDex 1.70beta2
#
DISCID=ab12110c
DTITLE=Sonny Rollins - Way Out West/Newk's Time/Freedom Suite
DYEAR=1957
DGENRE=Jazz
TTITLE0=Way Out West
TTITLE1=Tune Up
TTITLE2=Asiatic Rae's
TTITLE3=Wonderful! Wonderful!
TTITLE4=The Surrey with the Fringe On Top
TTITLE5=Blues for Philly Joe
TTITLE6=Namely You
TTITLE7=The Freedom Suite
TTITLE8=Someday I'll Find You
TTITLE9=Will You Still Be Mine?
TTITLE10='Til There Was You
TTITLE11=Shadow Waltz
EXTD=YEAR: 1957
EXTT0=
EXTT1=
EXTT2=
EXTT3=
EXTT4=
EXTT5=
EXTT6=
EXTT7=
EXTT8=
EXTT9=
EXTT10=
EXTT11=
PLAYORDER=
